<svg width="126" height="73" viewBox="0 0 126 73" fill="none" xmlns="http://www.w3.org/2000/svg">
<path d="M88.7693 8.93783e-05H36.48C16.332 8.93783e-05 0 16.3334 0 36.4801C0 56.6281 16.332 72.9614 36.48 72.9614H88.7693C108.916 72.9614 125.249 56.6281 125.249 36.4801C125.249 16.3334 108.916 8.93783e-05 88.7693 8.93783e-05ZM88.7693 5.33342C105.944 5.33342 119.916 19.3054 119.916 36.4801C119.916 53.6561 105.944 67.6281 88.7693 67.6281H36.48C19.3053 67.6281 5.33334 53.6561 5.33334 36.4801C5.33334 19.3054 19.3053 5.33342 36.48 5.33342H88.7693Z" fill="#EFEFEF"/>
<path d="M61.7041 36.4804C61.7041 22.0044 73.4401 10.2684 87.9161 10.2684C102.393 10.2684 114.128 22.0044 114.128 36.4804C114.128 50.9564 102.393 62.6924 87.9161 62.6924C73.4401 62.6924 61.7041 50.9564 61.7041 36.4804Z" fill="#EFEFEF"/>
</svg>